<?xml version="1.0" encoding="utf-8"?>
<!-- Generator: Adobe Illustrator 27.0.0, SVG Export Plug-In . SVG Version: 6.00 Build 0)  -->
<svg version="1.1" id="Шар_1" xmlns="http://www.w3.org/2000/svg" xmlns:xlink="http://www.w3.org/1999/xlink" x="0px" y="0px"
	 viewBox="0 0 714 714" style="enable-background:new 0 0 714 714;" xml:space="preserve">
<style type="text/css">
	.st0{fill:#232323;}
	.st1{fill:#FF5C83;}
	.st2{fill:#DD5078;}
	.st3{fill:#FF88AA;}
	.st4{fill:#C6D0E5;}
	.st5{fill:#C695B7;}
	.st6{fill:#9B7290;}
	.st7{fill:#C683B8;}
	.st8{fill:#A5799D;}
	.st9{fill:#D8A3CA;}
	.st10{fill:#BC95B4;}
	.st11{fill:#68775E;}
	.st12{fill:#FFD7EF;}
	.st13{fill:#E2BAD4;}
	.st14{fill:#FFE9F7;}
	.st15{fill:#EFD0E6;}
	.st16{fill:#D3A3C4;}
	.st17{fill:#B293AA;}
	.st18{fill:#67C993;}
	.st19{fill:#73E5A9;}
	.st20{fill:#FF7BEC;}
	.st21{fill:#A4FFCD;}
	.st22{fill:#2D2D2D;}
	.st23{fill:#141414;}
	.st24{fill:#FFFFFF;}
	.st25{fill:#569973;}
	.st26{fill:#4C4038;}
	.st27{fill:#6D5C53;}
	.st28{fill:#ED5D5D;}
	.st29{fill:#FF7B7B;}
	.st30{fill:#90899B;}
	.st31{fill:#B2A9BF;}
	.st32{fill:#B27680;}
	.st33{fill:#2B2B2B;}
	.st34{fill:#3D3D3D;}
	.st35{fill:#1E1E1E;}
	.st36{fill:#FF80BA;}
	.st37{fill:#303030;}
	.st38{fill:#8F8EA3;}
	.st39{fill:#ABA7C6;}
	.st40{fill:#020202;}
	.st41{fill:#282828;}
	.st42{fill:#FFDFCA;}
	.st43{fill:#D1B19F;}
	.st44{fill:#161616;}
	.st45{fill:#FF7BA7;}
	.st46{fill:#D16B93;}
	.st47{fill:#E0C0AF;}
	.st48{fill:#191919;}
	.st49{fill:#333333;}
	.st50{fill:#F985C2;}
	.st51{fill:#C193A6;}
	.st52{fill:#E2B3C5;}
	.st53{fill:#F7C6DA;}
	.st54{fill:#C17296;}
	.st55{fill:#FFC2DE;}
	.st56{fill:#A3A9BF;}
	.st57{fill:#D3D8EF;}
	.st58{fill:#BABFD3;}
	.st59{fill:#C9A6C9;}
	.st60{fill:#F7D2F4;}
	.st61{fill:#DDB8DC;}
	.st62{fill:#353135;}
	.st63{fill:#494649;}
	.st64{fill:#D7A1DB;}
	.st65{fill:#FFDB9C;}
	.st66{fill:#9FA3DD;}
	.st67{fill:#CC4689;}
	.st68{fill:#F458AD;}
	.st69{fill:#FFA585;}
	.st70{fill:#FFCBBB;}
	.st71{fill:#E86C4B;}
	.st72{fill:#BC4D37;}
	.st73{fill:#FFC1AE;}
</style>
<g>
	<path class="st56" d="M243.35,535.93L243.35,535.93c-3.88,0-7.05-3.17-7.05-7.05v-80.71c0-3.88,3.17-7.05,7.05-7.05l0,0
		c3.88,0,7.05,3.17,7.05,7.05v80.71C250.4,532.76,247.23,535.93,243.35,535.93z"/>
	<path class="st56" d="M241.72,288.23L241.72,288.23c-2.98,0-5.42-2.44-5.42-5.42v-47.23c0-2.98,2.44-5.42,5.42-5.42h0
		c2.98,0,5.42,2.44,5.42,5.42v47.23C247.14,285.79,244.7,288.23,241.72,288.23z"/>
	<path class="st56" d="M213.78,288.23c0,0-20.15-17.78-47.41,16.59s-79.41,165.33-65.78,178.37s60.44-141.63,81.78-161.78
		C203.7,301.26,221.71,292.07,213.78,288.23z"/>
	<path class="st56" d="M267.7,279.34c0,0,50.37,25.48,100.15,33.78s58.67,1.19,65.78,7.11c7.11,5.93-29.04,27.26-82.96,17.19
		S249.66,271.06,267.7,279.34z"/>
	<path class="st57" d="M153.04,620.22L153.04,620.22c-3.36,1.47-7.31-0.06-8.79-3.42L94.55,503.68c-1.47-3.36,0.06-7.31,3.42-8.79
		l0,0c3.36-1.47,7.31,0.06,8.79,3.42l49.71,113.12C157.94,614.79,156.4,618.75,153.04,620.22z"/>
	<path class="st57" d="M250.61,246.95c-3.42,1.65-7.45,1.41-10.65-0.65c-10.31-6.62-32.65-21.46-34.18-26.74
		c-1.64-5.63-0.6-36.39-0.16-47.41c0.09-2.39-0.63-4.73-2.01-6.69c-5.48-7.8-17.69-31.2,7.95-59.01
		c31.56-34.22,79.56-4.44,88.44,18.22c8.24,21.01,6.55,46.61-7.9,56.61c-2.38,1.65-4.01,4.16-4.53,7.01
		c-2.12,11.64-7.6,40.07-11.12,43.94C273.28,235.71,258.72,243.03,250.61,246.95z"/>
	<path class="st57" d="M268.89,466.6c0,0-11.85-14.22-28.44-13.04s-31.41,47.41-64,44.44c-32.59-2.96-30.22-64-18.96-104.89
		c11.26-40.89,32-117.93,84.74-123.26c52.74-5.33,87.7,94.22,92.44,132.15c4.74,37.93-1.78,86.52-20.74,93.04
		C294.96,501.56,275.31,472.44,268.89,466.6z"/>
	<path class="st57" d="M246.37,548.97c0,0-21.93,1.78-39.11-11.26s-34.37-12.44-46.22,0s4.74,37.33,26.07,54.52
		s33.78,51.56,59.26,53.33c25.48,1.78,30.22-34.37,54.52-53.93c24.3-19.56,48.02-44,29.94-63.48
		C312.74,508.67,293.19,549.56,246.37,548.97z"/>
	<path class="st58" d="M219.11,590c5.76-3.73,4.28-21.14-5.33-30.67c-7.25-7.19-20.03-10.77-24.44-6.22
		c-4.73,4.86,0.99,18.13,7.56,25.78C202.84,585.82,213.96,593.34,219.11,590z"/>
	<path class="st58" d="M264.89,584.67c4.7,5.76,19.14,3.7,26.67-4.44c6.21-6.72,8.49-18.42,4-22.67
		c-5.87-5.54-24.4,0.59-30.22,12.89C264.98,571.2,260.99,579.9,264.89,584.67z"/>
	<path class="st58" d="M247.11,630.45c-8.28,0.46-17.44-5.06-18.67-13.33c-1.42-9.57,8.28-19.49,18.67-18.67
		c10.25,0.81,18.1,11.84,15.56,20.89C260.75,626.14,253.46,630.09,247.11,630.45z"/>
	<path class="st58" d="M243.56,155.78c4.22,5.63-0.14,17.16-8.22,21.56c-7.64,4.16-18.84,2.08-21.56-3.78
		c-3.08-6.64,4.98-17.61,14.44-20.44C232.65,151.79,240.26,151.39,243.56,155.78z"/>
	<path class="st58" d="M260.22,159.34c-4.86,3.56-4.08,12.64-0.44,18c5.02,7.4,16.99,9.9,21.33,5.33c3.98-4.19,1.3-14.04-4.22-19.33
		C272.86,159.48,265.02,155.82,260.22,159.34z"/>
	<path class="st58" d="M247.33,187.12c-4.55-0.69-12.07,8.75-9.11,14.22c2.25,4.16,10.21,5.41,13.56,2.22
		C256.23,199.33,251.95,187.82,247.33,187.12z"/>
	<path class="st58" d="M222.96,207.34c10.01,10.83,26.7,13.06,40.19,8.25c1.99-0.73,3.95-1.61,5.88-2.77
		c-1.17,1.94-2.86,3.55-4.7,4.92C251.51,227.22,228.37,223.52,222.96,207.34L222.96,207.34z"/>
	<path class="st58" d="M241.72,273.41c0,0-36.58,19.21-37.15,29.01s30.24,2.69,34.99,5.06s-15.83,9.76-33.48,6.52
		s-23.41,21.63-6.22,20.74c17.19-0.89,42.84-5.93,43.5-1.78c0.65,4.15-39.05,12.15-50.9,13.63s-29.04,22.81-4.15,19.26
		c24.89-3.56,55.7-16.89,57.48-10.96c1.78,5.93-38.52,18.07-53.63,22.81c-15.11,4.74-24.3,20.15-19.26,26.07s63.88-23.7,68.83-21.63
		c4.95,2.07-17.87,20.15-38.31,28.44s-31.11,5.93-35.56,22.81s24.35,10.37,38.99,4.15c14.64-6.22,27.08-20.15,29.45-16.59
		c2.37,3.56-21.93,32.3-38.52,33.78c-16.59,1.48-36.15,8.59-33.48,22.22c2.67,13.63,22.22,17.48,37.63,0s27.98-32,41.1-32
		c13.12,0,27.04,10.37,37.71,24.59c10.67,14.22,24.89,18.37,35.26,7.7c10.37-10.67,2.96-22.52-15.41-26.67
		c-18.37-4.15-42.37-20.15-40.59-29.33s15.7,12.74,36.44,17.19c20.74,4.44,24.85-11.56,24.28-19.85s-55.69-18.07-61.91-32.89
		s21.63,9.19,41.48,10.96c19.85,1.78,18.96-21.33,13.93-27.56c-5.04-6.22-46.22-2.67-53.04-13.93c-6.81-11.26,30.22,6.52,47.41-1.19
		s-33.48-18.67-43.26-20.44c-9.78-1.78,7.11-5.63,20.74-5.63c13.63,0,5.63-18.02-1.78-18.64c-7.41-0.62-22.22,2.93-24.89-2.1
		s21.34,0.33,18.97-9.17C276,288.52,249.58,275.45,241.72,273.41z"/>
	<path class="st59" d="M418.11,302.55c0,0-43.74,49.09-51.45,115.46s-8.3,79.09,0,80.14C374.96,499.19,418.11,302.55,418.11,302.55z
		"/>
	<path class="st59" d="M495.73,286.05c0,0,42.79,6.92,78.94,62.62c36.15,55.7,51.56,108.44,42.07,114.37
		C607.26,468.97,495.73,286.05,495.73,286.05z"/>
	<path class="st59" d="M506.35,532L506.35,532c-3.74,1.1-7.7-1.05-8.8-4.79l-21.67-73.37c-1.1-3.74,1.05-7.7,4.79-8.8l0,0
		c3.74-1.1,7.7,1.05,8.8,4.79l21.67,73.37C512.24,526.94,510.09,530.9,506.35,532z"/>
	<path class="st59" d="M457.6,282.84l-3.45,1.02c-2.03,0.6-4.19-0.57-4.79-2.6l-12.09-40.94c-0.6-2.03,0.57-4.19,2.6-4.79l3.45-1.02
		c2.03-0.6,4.19,0.57,4.79,2.6l12.09,40.94C460.81,280.09,459.64,282.24,457.6,282.84z"/>
	<path class="st60" d="M392,205.35c0,0-21.33,0.21-29.33-30.46s6.67-57.78,35.56-64.89c28.89-7.11,59.56,14.22,65.33,35.56
		c5.78,21.33-6.67,44-6.67,44s12,31.11,10.67,36c-1.33,4.89-11.11,27.11-17.78,31.56c-6.67,4.44-40-9.78-44.44-14.22
		C400.89,238.45,392,205.35,392,205.35z"/>
	<path class="st60" d="M452.89,278.51c-21.04,5.12-50.67,21.72-56.59,102.54s2.97,122.89,38.22,120.51
		c35.26-2.37,35.85-34.96,56.59-37.93c20.74-2.96,56.89,19.56,80.59,6.52c23.7-13.04-22.52-130.31-49.78-160.86
		C494.67,278.74,473.93,273.39,452.89,278.51z"/>
	<path class="st60" d="M511.26,560.23c0,0-16,3.07-37.93-9.13c-21.93-12.2-39.11-3.91-45.63,12.09s49.78,40.3,63.41,57.48
		s20.74,23.7,40.89,20.15c20.15-3.56,21.33-37.6,38.52-52.87c17.19-15.27,33.78-46.68,13.63-60.9
		c-20.15-14.22-46.81,11.85-53.93,21.33C523.11,557.86,516.01,559.88,511.26,560.23z"/>
	<path class="st61" d="M487.85,590.74c4.07-6.04-1.56-17.17-9.48-21.63c-5.18-2.92-13.73-4.34-17.78,0
		c-4.89,5.25-1.64,17.24,5.93,22.52C473.25,596.33,484.15,596.23,487.85,590.74z"/>
	<path class="st61" d="M540.3,582.74c-5.66-5.22-2.88-15.69,0.59-21.33c4.98-8.1,16.13-13.95,22.22-10.37
		c6.99,4.1,7.38,20.65-1.19,28.74C556.38,585.02,545.85,587.87,540.3,582.74z"/>
	<path class="st61" d="M520.74,602.89c-6,1.57-10.95,7.27-10.67,13.63c0.35,7.91,8.69,14.36,16.89,12.74
		c7.76-1.53,13.3-9.87,10.96-17.48C535.74,604.68,527.59,601.1,520.74,602.89z"/>
	<path class="st61" d="M413.93,180.37c-5.12-1.47-12.09,4.1-14.52,10.52c-1.79,4.74-2.28,13.03,3.26,16.59
		c5.08,3.27,12.35,0.69,15.85-3.41C424.82,196.7,420.7,182.31,413.93,180.37z"/>
	<path class="st61" d="M430.07,177.71c-3.19,4.28,0.24,12.64,5.48,16.74c3.01,2.36,9.06,5.22,13.19,2.52
		c4.71-3.09,4.7-11.96,0.74-17.04C444.59,173.66,433.55,173.04,430.07,177.71z"/>
	<path class="st61" d="M429.93,207.19c-3.83,1.76-5.92,11-1.19,14.81c4.63,3.73,13.04,0.08,14.07-4
		C444.1,212.94,434.59,205.06,429.93,207.19z"/>
	<path class="st61" d="M419.78,233.34c16.04,4.35,24.36,4.14,34.89-9.78c-1.23,6.26-5.58,12.18-11.56,14.79
		C435.14,241.53,425.99,238.64,419.78,233.34L419.78,233.34z"/>
	<path class="st61" d="M456.15,286.05c0,0-37.04,27.07-34.07,40.4c2.96,13.33,34.07-8.59,36.74-2.67s-26.96,13.92-34.67,16.29
		c-7.7,2.37-16.29,18.08-10.07,21.63c6.22,3.56,43.55-24.59,46.81-19.85c3.26,4.74-28.15,27.93-39.11,28.93
		c-10.96,1-13.04,18.48-11.56,23.52s54.13-36.15,57.44-30.52s-42.31,34.67-53.58,41.19c-11.26,6.52-2.89,30.22,4.03,26.96
		c6.92-3.26,42.98-34.37,49.55-39.41c6.56-5.04,1.53,12.15-15.07,24.89c-16.59,12.74-37.93,24.3-36.44,39.11
		c1.48,14.81,46.96-18.37,54.3-25.19c7.33-6.81,3.98,4.15-2.79,12.44S420.89,468.97,420,474c-0.89,5.04,4.63,22.24,21.57,14.67
		c16.95-7.56,36.8-34.23,46.58-36.6c9.78-2.37,65.48,21.91,74.07,11.1c8.59-10.81,7.36-27.1-4.62-27.7s-53.75-4.74-56.12-10.37
		c-2.37-5.63,53.04,4.15,57.78-1.48c4.74-5.63-2.07-22.22-20.74-21.04c-18.67,1.19-51.21-6.52-50.34-11.56
		c0.86-5.04,36.12,7.11,50.34,3.26c14.22-3.85,12.15-26.37,2.37-29.04c-9.78-2.67-49.07,0-54.46-5.93
		c-5.39-5.93,36.98-0.3,43.79-7.11c6.81-6.81-4.44-18.07-16.89-18.67c-12.44-0.59-39.11-5.93-39.41-10.07
		c-0.3-4.15,43.16,5.66,42.47-3.99C515.7,309.86,480.74,286.24,456.15,286.05z"/>
	<path class="st62" d="M451.41,582.32c0,0-0.59,5.46-8.89,8.72c-8.3,3.26-12.74,4.05-16.59,7.36c-3.85,3.31-10.13,7.45-17.36,5.97
		l-1.9-38c0,0-75.65-8.78-123.11-83.77c-0.9-1.42-1.55-2.96-1.94-4.54c-0.89-3.5-0.54-7.26,1.09-10.6
		c10.35-21.27,46.07-76.91,133.59-68.9c5.91,0.55,10.78,4.35,12.93,9.54c0.77,1.86,1.19,3.91,1.18,6.04
		c-0.17,25.59-1.66,83.13-10.7,141.36L451.41,582.32z"/>
	<path class="st63" d="M451.41,582.32c0,0-0.59,5.46-8.89,8.72c-8.3,3.26-12.74,4.05-16.59,7.36c-3.85,3.31-10.13,7.45-17.36,5.97
		l-1.9-38c0,0-75.65-8.78-123.11-83.77c-0.9-1.42-1.55-2.96-1.94-4.54c0.79,0.49,40.25,25,92.16-2.72
		c51.87-27.7,55.38-66.4,55.45-67.24c0.77,1.86,1.19,3.91,1.18,6.04c-0.17,25.59-1.66,83.13-10.7,141.36L451.41,582.32z"/>
	<path class="st64" d="M327.33,444.67c0,0-11.4-33.51,6-36.57s14.22,35.46,14.22,35.46s26-20.89,33.56-10.67
		c7.56,10.22-20.45,27.33-20.45,27.33s26.77,7.56,16,22.67c-10.76,15.11-29.56-9.33-29.56-9.33s-2.8,33.09-16.29,26.43
		s0-37.99,0-37.99s-30.6,6.22-31.94-9.11S327.33,444.67,327.33,444.67z"/>
	<path class="st64" d="M408.56,431.34c0,0-33.53-11.36-26.16-23.24c7.37-11.88,39.15,8.12,39.15,8.12s7.33-33.61,20.67-27.92
		c13.33,5.69-5.56,32.8-5.56,32.8s32.44-4.89,31.78,10.22c-0.67,15.11-33.92,7.56-33.92,7.56s14.81,26.44,1.7,33.56
		c-13.11,7.11-16.67-28.44-16.67-28.44s-21.78,26.35-32.44,10.4C376.44,438.45,408.56,431.34,408.56,431.34z"/>
	<path class="st65" d="M430.22,429.23c-0.36-3.79-3.72-6.44-6.89-6.56c-4.85-0.17-9.14,5.6-7.56,10c1.15,3.21,5.31,5.37,9.11,4.22
		C428.05,435.94,430.56,432.83,430.22,429.23z"/>
	<path class="st65" d="M343.67,450.23c-4.25,0.57-7.91,5.25-6.56,9.33c1.18,3.54,5.78,5.53,9.56,4.11c3.79-1.42,6.02-5.99,4.44-9.56
		C349.84,451.23,346.47,449.85,343.67,450.23z"/>
	<path class="st66" d="M281.14,449.12c0,0-18.33-32.44,0-37.11s20.19,29.11,20.19,29.11s27.78-22.22,32.67-7.56
		c4.89,14.67-19.34,23.11-19.34,23.11s23.43,24.69,5.94,33.9c-17.49,9.21-23.94-18.35-23.94-18.35s-7.57,33.56-23.67,26.89
		c-16.11-6.67,4.34-30.22,4.34-30.22s-26-3.11-22.89-18.67C257.56,434.67,281.14,449.12,281.14,449.12z"/>
	<path class="st66" d="M357.78,400.35c0,0-25.56-6.26-18.89-19.3c6.67-13.04,32.22,9.65,32.22,9.65s2.53-28.51,17.33-25.58
		c14.8,2.93,2.67,32.66,2.67,32.66s28.89-4.89,27,7.56c-1.89,12.44-28.72,7.33-28.72,7.33s11.06,22.67-1.39,27.56
		s-16-23.78-16-23.78s-22.13,17.95-29.78,7.33S357.78,400.35,357.78,400.35z"/>
	<path class="st65" d="M374.89,398.23c-2.5,1.16-4.57,4.13-3.89,7.11c0.8,3.47,5,5.4,8.44,4.44c3.41-0.94,5.92-4.66,5-7.89
		C383.41,398.24,378.39,396.61,374.89,398.23z"/>
	<path class="st65" d="M293.44,449.67c-4.7,1.17-8.89,6.23-7.56,11c1.27,4.55,6.92,6.52,11.22,5.78c4.58-0.79,9.1-4.92,8.67-9.44
		C305.29,451.95,298.81,448.34,293.44,449.67z"/>
	<path class="st60" d="M351.62,564.08c0,0,0.23-31.11,10.9-31.7c10.67-0.59,28.44,13.97,28.74,23.13
		c0.3,9.17-19.85,23.68-26.67,22.5C357.78,576.82,351.09,572.91,351.62,564.08z"/>
	<path class="st60" d="M346.44,547.12c0,0-14-22.46-8.67-24.23C343.11,521.12,346.44,547.12,346.44,547.12z"/>
	<path class="st60" d="M366.51,528.67c0,0,6.38-30.25,13.93-27.02C388,504.89,366.51,528.67,366.51,528.67z"/>
	<path class="st60" d="M377.75,534.96c0,0,11.01-34.51,16.85-31.84C400.44,505.78,377.75,534.96,377.75,534.96z"/>
	<path class="st60" d="M386.66,539.34c0,0,8.68-23.78,13.56-22.22S386.66,539.34,386.66,539.34z"/>
	<path class="st60" d="M391.26,547.12c0,0,12.98-22.22,17.3-17.56C412.89,534.23,391.26,547.12,391.26,547.12z"/>
</g>
</svg>
